<?xml version="1.0" encoding="utf-8"?>
<!-- Generator: Adobe Illustrator 23.1.0, SVG Export Plug-In . SVG Version: 6.00 Build 0)  -->
<svg version="1.1" id="Capa_1" xmlns="http://www.w3.org/2000/svg" xmlns:xlink="http://www.w3.org/1999/xlink" x="0px" y="0px"
	 viewBox="0 0 1000 1000" style="enable-background:new 0 0 1000 1000;" xml:space="preserve">
<style type="text/css">
	.st0{fill:#4A72B2;}
	.st1{fill:#FFFFFF;}
	.st2{fill:#F0EAC2;}
	.st3{fill:none;stroke:#000000;stroke-width:10;stroke-linecap:round;stroke-miterlimit:10;}
	.st4{fill:#1F4082;}
	.st5{fill:#2F599F;}
</style>
<g>
	<path class="st0" d="M537.17,658.24c0,23.77-20.18,43.04-45.07,43.04c-24.89,0-45.07-19.27-45.07-43.04"/>
	<path class="st0" d="M473.7,662.71l-257.01-4.04c-4.54,0-8.21-3.52-8.21-7.85V647c0-4.24,3.51-7.7,7.95-7.84l239.74-4.04
		C457.04,646.79,463.84,656.9,473.7,662.71z"/>
	<path class="st0" d="M792.79,635v17.58c0,5.59-4.75,10.13-10.6,10.13H512.53c10.51-6.2,17.55-17.27,17.63-29.92l251.69-7.91
		C787.82,624.7,792.79,629.28,792.79,635z"/>
	<path class="st1" d="M512.53,662.71c-5.65,3.32-12.29,5.24-19.42,5.24c-7.12,0-13.77-1.92-19.4-5.24H512.53z"/>
</g>
<path class="st2" d="M497.07,617.25c0,0,130.03-47.58,291.42-18.44l0.6-1.14l9.91-350.7c-161.39-29.14-291.42,18.44-291.42,18.44"/>
<path class="st2" d="M477.38,636.42c0,0-121.38-50.39-268.71-15.2l-0.59-1.26l-22.36-388.5c147.33-35.19,268.71,15.2,268.71,15.2"/>
<path class="st3" d="M484.62,601.92c0,0-94.93-72.41-257.09-47.1l0,0V204.01c162.16-25.32,256.52,45.94,256.52,45.94"/>
<path class="st3" d="M484.62,601.92c0,0,128.64-50.63,290.8-25.32l0.56-1.16V224.63c-162.16-25.32-290.8,25.32-290.8,25.32"/>
<g>
	<path d="M484.62,259.92c2.07,27.28,3.14,54.55,3.92,81.83c0.73,27.28,1.07,54.55,1.08,81.83c0.01,27.28-0.33,54.55-1.07,81.83
		c-0.77,27.28-1.85,54.55-3.93,81.83c-2.08-27.28-3.16-54.55-3.93-81.83c-0.73-27.28-1.07-54.55-1.07-81.83
		c0.01-27.28,0.35-54.55,1.08-81.83C481.48,314.48,482.55,287.2,484.62,259.92z"/>
</g>
<path class="st3" d="M227.53,573.57v66.34h220.12c0,18.67,16.55,33.81,36.97,33.81c20.42,0,36.97-15.14,36.97-33.81h254.39v-47.62"
	/>
<g>
	<path d="M237.39,601.92c18.95-5.42,38.58-8.25,58.23-9.97c19.67-1.66,39.46-2.07,59.19-1.11l3.7,0.14l3.69,0.27l7.39,0.56
		c4.92,0.42,9.85,0.7,14.74,1.39l14.69,1.84c4.89,0.64,9.74,1.6,14.6,2.43c4.85,0.9,9.74,1.59,14.53,2.79l14.41,3.32
		c2.4,0.57,4.79,1.12,7.15,1.84l7.1,2.06c4.72,1.39,9.44,2.79,14.13,4.27c-4.86-0.83-9.69-1.74-14.51-2.65
		c-4.83-0.87-9.6-2.01-14.47-2.64c-9.69-1.5-19.32-3.27-29.05-4.36l-7.28-0.93c-2.43-0.29-4.83-0.73-7.27-0.91l-14.6-1.41
		c-4.86-0.55-9.74-0.8-14.61-1.13l-7.31-0.51l-3.65-0.25l-3.66-0.13l-14.64-0.6l-14.65-0.15l-3.66-0.06l-3.66,0.05l-7.33,0.11
		c-4.89,0.03-9.77,0.25-14.66,0.42C276.37,597.44,256.83,598.94,237.39,601.92z"/>
</g>
<g>
	<path d="M266.65,618.56c6.52-2.77,13.48-4.52,20.48-5.81c1.76-0.29,3.51-0.6,5.28-0.84l5.3-0.66c1.77-0.26,3.54-0.33,5.31-0.48
		c1.77-0.12,3.55-0.31,5.32-0.38c7.1-0.43,14.2-0.45,21.3-0.37c1.77,0.02,3.55,0.09,5.32,0.14c1.77,0.05,3.55,0.1,5.31,0.21
		l10.61,0.57c14.12,1.03,28.19,2.64,42.17,4.74c7,0.99,13.95,2.29,20.91,3.51c6.94,1.37,13.86,2.77,20.75,4.42
		c-7.08-0.32-14.11-0.95-21.14-1.5l-10.54-0.86c-3.51-0.28-7.01-0.67-10.52-0.92c-3.51-0.27-7.02-0.56-10.52-0.91
		c-3.5-0.35-7.01-0.56-10.51-0.85c-7-0.62-14.01-1.09-21.01-1.65l-10.5-0.7c-3.5-0.26-7-0.31-10.5-0.54c-7-0.4-14-0.5-21-0.63
		c-6.99,0.03-14,0.04-20.97,0.6C280.51,616.12,273.57,617.05,266.65,618.56z"/>
</g>
<g>
	<path d="M755.26,601.51c-19.45-2.98-38.99-4.49-58.53-5.32c-4.89-0.17-9.77-0.39-14.66-0.42l-7.33-0.11l-3.66-0.05l-3.66,0.06
		l-14.65,0.15l-14.64,0.6l-3.66,0.13l-3.65,0.25l-7.31,0.51c-4.87,0.33-9.76,0.58-14.61,1.13l-14.6,1.41
		c-2.44,0.18-4.85,0.62-7.27,0.91l-7.28,0.93c-9.73,1.09-19.36,2.86-29.05,4.36c-4.87,0.63-9.64,1.76-14.47,2.64
		c-4.82,0.92-9.65,1.82-14.51,2.65c4.69-1.48,9.4-2.88,14.13-4.27l7.1-2.06c2.36-0.72,4.76-1.28,7.15-1.84l14.41-3.32
		c4.79-1.2,9.68-1.89,14.53-2.79c4.86-0.83,9.71-1.79,14.6-2.43l14.69-1.84c4.89-0.69,9.82-0.97,14.74-1.39l7.39-0.56l3.69-0.27
		l3.7-0.14c19.73-0.97,39.52-0.55,59.19,1.11C716.67,593.26,736.3,596.1,755.26,601.51z"/>
</g>
<g>
	<path d="M747.56,620.08c-4.36-0.95-8.77-1.53-13.17-2.09c-2.21-0.22-4.4-0.54-6.62-0.74l-6.63-0.58
		c-8.84-0.68-17.7-1.12-26.55-1.35c-17.72-0.43-35.45-0.29-53.17,0.52c-8.86,0.22-17.72,0.87-26.58,1.29
		c-8.87,0.44-17.71,1.29-26.58,1.76c-4.43,0.37-8.85,0.78-13.28,1.12l-13.31,1.03c-8.86,0.79-17.73,1.61-26.65,2.15
		c8.72-1.87,17.5-3.46,26.28-5.08c8.81-1.39,17.64-2.68,26.49-3.88c4.43-0.52,8.87-1.02,13.31-1.46l6.66-0.69l3.33-0.35l3.34-0.26
		c8.91-0.65,17.82-1.38,26.76-1.61l6.7-0.21c2.23-0.08,4.47-0.15,6.7-0.14c4.47-0.01,8.94-0.07,13.42-0.04
		c8.94,0.25,17.89,0.43,26.82,1.21l3.35,0.24c1.12,0.09,2.23,0.22,3.34,0.32c2.23,0.22,4.46,0.44,6.68,0.7
		c2.23,0.22,4.44,0.56,6.66,0.87c2.22,0.33,4.44,0.59,6.64,0.97l6.61,1.2c2.2,0.41,4.39,0.91,6.57,1.4
		c2.18,0.48,4.34,1.09,6.51,1.64C743.33,618.65,745.48,619.27,747.56,620.08z"/>
</g>
<g>
	<path class="st0" d="M283.64,308.15c-1.24,10.3-4.17,22.22-20,20.32c-0.71-0.09-1.74-2.65-1.74-2.65s-4.49,0.4-4.82-0.08
		c-1.5-1.85,2.69-23.73,2.69-23.73s-0.88,0.39-1.37,0.33c-0.49-0.06-2.04-6.58-1.92-7.62c0.13-1.04,7.1-4.09,15.43-3.09
		C278.53,292.42,284.88,297.8,283.64,308.15z M266.93,320.03c2.79,0.34,5.67-6.93,6.4-13.06c0.9-7.45-2.87-6.62-3.68-5.94
		C268.8,301.7,266.33,319.95,266.93,320.03z"/>
	<path class="st0" d="M301.72,316.71c-0.27-0.03-2.48-0.13-5.08-0.22c-0.57,3.38-1.09,6.26-1.39,8.33l6.85,0.82
		c0.93,0.11,0.59,5.29-0.02,5.22c-0.6-0.07-16.98-1.54-17.58-1.61c-0.52-0.73-0.3-3.48,0.17-4.65c0.76-5.41,2.9-19.48,3.66-24.89
		l-0.99-0.12c-0.56-0.9-0.25-4.86,0.48-5.39c0.68-0.58,14.88,1.01,19.45,1.78c0.92,0.17,0.27,5.64-0.33,5.52
		c-0.27-0.03-3.74-0.34-7.69-0.7l-1.68,10.24c1.54,0.13,2.97,0.25,4.18,0.39C302.67,311.54,302.32,316.78,301.72,316.71z"/>
	<path class="st0" d="M325.57,309.13c-0.49-0.06-1.6-4.69-3.46-4.92c-0.6-0.07-1.3,0.62-1.48,2.16c-0.49,4.05,5.98,12.61,5.04,20.44
		c-0.62,5.15-4.23,8.88-9.66,8.23c-8.38-1.01-10.48-5.26-9.89-10.13c0.2-1.64,6.42-2.12,6.33-1.35c-0.1,0.82-0.81,4.46,1.65,4.75
		c1.04,0.13,1.38-1.28,1.44-1.83c0.61-5.04-7.06-13.4-6.14-21.02c0.64-5.31,5.43-8.63,10.08-8.07c5.15,0.62,9.46,4.97,9.04,8.42
		C328.38,306.97,326.01,309.18,325.57,309.13z"/>
	<path class="st0" d="M338.34,338.33c-7.39-0.89-11.25-8.57-9.94-19.47c1.32-10.95,6.32-19.8,13.88-18.89
		c7.56,0.91,10.31,7.57,9.63,13.21c-0.09,0.77-7.38,2.28-7.99,2.21c-0.6-0.07,2.1-6.86-1.02-7.23c-3.12-0.38-6.94,21.22-3.27,21.66
		c2.03,0.24,2.52-2.47,2.66-3.68c2.14,0.26,7.61,2.75,7.48,3.9C349.48,332.51,344.47,339.07,338.34,338.33z"/>
	<path class="st0" d="M367.05,333.28c-2.37,4.49-5.4,7.46-8.57,7.08c-4.65-0.56-7.31-4.32-6.39-11.99
		c0.28-2.3,2.82-22.49,3.88-23.53c2.28-1.84,11.02,0.27,10.92,1.15c-0.11,0.93-5.22,22.59-2.37,22.94
		c2.85,0.34,5.52-19.11,5.52-19.11l0.05,0.06c0.09-1.21,0.15-2.2,0.12-2.82c2.14-1.63,10.42-0.25,11.18,0.84
		c0.48,0.67-0.8,12.63-2.5,22.14c-0.1,0.38,0.31,1.09,0.55,1.4c0.37,0.6-1.76,7.68-2.19,8.01c-1.4,1-11.21,0.37-11.13-0.28
		C366.18,338.68,366.57,336.34,367.05,333.28z"/>
	<path class="st0" d="M400.7,327.39c0,0,7.31,2.49,6.55,8.84c-0.99,8.21-10.92,10.85-14.86,10.38c-1.31-0.16-3.53-5.31-3.53-5.31
		s-5.03,0.28-5.9-0.82c-0.81-1.1,2.61-21.74,2.61-21.74s-1.29,0.07-1.23-0.43c0.06-0.49-0.18-9.58,0.68-10.25
		c0.8-0.68,4.93-1.74,12.16-0.87c7.17,0.86,12.53,5.78,11.92,10.82C408.4,323.87,402.74,327.07,400.7,327.39z M392.67,336.42
		c1.59,0.19,3.55-1.35,3.72-2.77c0.16-1.31-2.93-2.46-3.42-2.08C392.55,331.91,392.12,336.35,392.67,336.42z M394.2,323.22
		c1.75,0.21,4.24-2.49,4.51-4.74c0.34-2.85-2.92-3.46-3.59-2.93C394.45,316.08,393.66,323.15,394.2,323.22z"/>
	<path class="st0" d="M437.82,324.07c-0.7,5.8-3.95,9.3-8.43,10.99c1.98,2.96,5.84,9.2,7.43,9.39c-0.18,1.53-5.31,4.92-7.83,4.61
		c-1.81-0.22-5.88-6.54-8.07-10.53c-0.31,3.07-0.5,5.55-0.36,6.73c-2.15,1.74-9.7,0.72-10.52-0.32c-0.53-0.68,1.02-14.49,2.55-24.42
		l-0.16-0.02c-1.1-0.13-0.3-9.54,0.19-9.92c0.55-0.43,7.08-1.15,12.39-0.51C433.27,311.08,438.63,317.33,437.82,324.07z
		 M422.26,327.81c2.26,0.11,4.56-0.51,5.17-5.55c0.22-1.81-1.03-2.96-2.89-3.24c-0.33-0.04-0.66-0.08-1.05-0.07L422.26,327.81z"/>
	<path class="st0" d="M455.97,335.25c-0.27-0.03-2.48-0.13-5.08-0.22c-0.57,3.38-1.09,6.26-1.39,8.33l6.85,0.82
		c0.93,0.11,0.59,5.29-0.02,5.22c-0.6-0.07-16.98-1.54-17.58-1.61c-0.52-0.73-0.3-3.48,0.17-4.65c0.76-5.41,2.9-19.48,3.66-24.89
		l-0.99-0.12c-0.56-0.9-0.25-4.86,0.48-5.39c0.68-0.58,14.88,1.01,19.45,1.78c0.92,0.17,0.27,5.64-0.33,5.52
		c-0.27-0.03-3.74-0.34-7.69-0.7l-1.68,10.24c1.54,0.13,2.97,0.25,4.17,0.39C456.93,330.09,456.58,335.33,455.97,335.25z"/>
</g>
<g>
	<g>
		<path class="st4" d="M283.83,393.69l19.81-2.33l10.28,63.17l-17.82,2.1l-1.14-9.68l-12.94,1.52l-2.93,10.16l-18.18,2.14
			L283.83,393.69z M293.53,433.18l-1.92-17.84l-5.32,18.69L293.53,433.18z"/>
		<path class="st4" d="M363.18,407.92c0.97,8.23-0.37,20.22-4.96,29.56l4.77,7.78l-12.07,7.29l-2.19-3.78
			c-3.05,2.1-6.73,3.63-10.61,4.09c-12.3,1.45-22.3-4.8-24.29-21.72c-1.19-10.13,0.64-25.75,8.54-35.76
			c3.91-4.95,9.63-8.56,16.5-9.37C351.17,384.57,361.19,391,363.18,407.92z M339.93,436.33l-4.65-7.52l10.03-5.95
			c0.7-4.94,0.76-9.9,0.38-13.16c-0.78-6.6-3.23-7.97-5.94-7.65c-1.36,0.16-2.56,0.85-3.76,2.37c-4.07,5.16-5.39,18.88-4.64,25.22
			c0.78,6.6,3.25,8.15,5.97,7.83C338.13,437.37,339.09,436.98,339.93,436.33z"/>
		<path class="st4" d="M365.97,432.35c-0.4-3.44-0.36-6.19-0.05-8.98l3.86-39.62l17.64-2.08l-4.01,41.47
			c-0.07,0.93-0.25,2.51-0.09,3.86c0.31,2.62,2.22,4.05,5.11,3.71c1.45-0.17,2.75-0.78,3.63-1.89c1.04-1.31,1.5-2.84,1.81-5.62
			l4.14-42.77l17.64-2.08l-4.16,43.32c-0.77,7.52-2.55,12.59-5.74,16.63c-3.67,4.65-9.83,7.67-17.43,8.56
			C375.19,448.41,367.17,442.57,365.97,432.35z"/>
		<path class="st4" d="M420.07,377.83l17.64-2.08l-6.29,64.94l-17.64,2.08L420.07,377.83z M430.19,362.51l17.41,1.43l-12.35,9.62
			l-12.57,1.48L430.19,362.51z"/>
	</g>
</g>
<g>
	<g>
		<g>
			<g>
				<path class="st4" d="M607.01,300.29l-10.18,1.04l1.43-11.99l33-3.36l-1.43,11.99L619.66,299l-4.79,43.18l-12.72,1.3
					L607.01,300.29z"/>
			</g>
		</g>
		<g>
			<g>
				<path class="st4" d="M631.06,326.82c-0.25-2.47-0.18-4.81,0.12-7.18l3.85-34.05l12.65-1.29l-3.94,34.76
					c-0.21,1.74-0.29,3.3-0.15,4.61c0.31,3.01,2.33,4.51,5.26,4.22c1.7-0.17,2.95-0.85,3.92-2.04c1.11-1.36,1.7-3.21,2.11-6.06
					l4.13-36.65l12.64-1.29l-4.16,37.12c-0.71,6.07-2.35,10.6-5.12,14c-3.05,3.74-7.8,6.01-13.58,6.6
					C638.62,340.62,631.97,335.76,631.06,326.82z"/>
			</g>
		</g>
		<path class="st5" d="M538.63,400.73l-0.77,0.06l-2.24,0.17l-2.41,17.51l-12.67,0.95l7.68-54.98l12.37-0.93
			c7.65-0.58,12.65,0.76,15.97,3.54c2.83,2.43,4.41,5.96,4.74,10.37c0.44,5.87-1.04,10.96-4.47,14.95
			c-1.43,1.66-3.41,3.29-6.02,4.65l6.53,19.64l-13.45,1.01L538.63,400.73z M539.78,390.22c3.25-0.24,5.11-1.32,6.54-2.98
			c1.58-1.75,2.27-4.99,2.09-7.39c-0.15-2.01-0.79-3.21-1.7-3.99c-1.08-0.93-2.51-1.37-4.91-1.19l-2.47,0.19l-2.17,15.55
			L539.78,390.22z"/>
		<path class="st5" d="M568.7,361.39l30.22-2.27l-1.76,11.79l-17.39,1.31l-1.44,9.82l15.69-1.18l-1.55,11.39l-15.69,1.18
			l-1.41,10.21l17.85-1.34l-1.76,11.79l-30.45,2.29L568.7,361.39z"/>
		<path class="st5" d="M598.49,392.73c-0.73-9.66,1.66-21.34,8.02-28.74c3.36-3.91,7.88-6.81,13.83-7.26
			c6.96-0.52,12.28,2.11,15.76,5.97l-7.41,9.96c-1.89-2.35-4.2-4.11-7.21-3.89c-2.09,0.16-3.72,1.21-5,2.71
			c-4,4.65-5.4,13.93-4.99,19.49c0.58,7.65,4.01,9.88,7.41,9.62c2.71-0.2,4.84-1.84,7.08-4.03l5.58,10.07
			c-3.63,3.46-8.11,5.82-13.37,6.21C607.14,413.69,599.53,406.56,598.49,392.73z"/>
		<path class="st5" d="M641.35,355.93l30.22-2.27l-1.75,11.79l-17.39,1.31l-1.44,9.82l15.69-1.18l-1.55,11.39l-15.69,1.18
			l-1.41,10.21l17.85-1.34l-1.76,11.79l-30.45,2.29L641.35,355.93z"/>
		<path class="st5" d="M683.42,364.58l-10.2,0.77l1.74-11.94l33.08-2.49l-1.74,11.94l-10.2,0.77l-5.94,43.04l-12.75,0.96
			L683.42,364.58z"/>
		<path class="st5" d="M719.38,349.83l13.76-1.03l6.95,54.12l-12.83,0.96l-0.97-9.8l-12.52,0.94l-3.67,10.15l-13.06,0.98
			L719.38,349.83z M725.35,383.66l-1.5-16.83l-6.23,17.41L725.35,383.66z"/>
	</g>
</g>
<g>
	<path class="st4" d="M543.7,454.77c0.98,0.09,1.69,0.8,1.86,1.77c1.51,8.87,8.25,50.84,8.25,52.88c0,1.24-9.76,3.81-12.87,4.08
		c-0.8,0.09-1.6-0.44-1.86-1.24c-1.51-4.7-3.19-17.48-3.19-17.48h-4.61c-0.8,0-1.33,0.62-1.42,1.33c0,0-0.98,4.97-1.15,6.65
		c-0.27,1.86-0.62,7.45-0.62,7.45s-14.73,0-16.24-1.06c-0.8-7.1,7.9-45.34,11.54-54.39c0.35-0.98,1.24-1.6,2.31-1.51L543.7,454.77z
		 M534.03,486c0.53,0,0.89-0.44,0.8-0.98l-2.22-13.84l-2.31,14.02c-0.09,0.44,0.27,0.8,0.71,0.8H534.03z"/>
	<path class="st4" d="M573.78,488.58c0,5.95-0.35,10.47,2.84,10.47c3.19,0,5.15-13.31,5.15-15.53c1.42-1.42,5.94,3.37,5.94,4.61
		c0,1.24-4.7,25.38-17.21,25.38c-8.16,0-13.84-4.44-13.84-20.14c0-18.1,0.44-41.97,1.42-42.86c0.98-0.98,15.88-1.33,17.92,0.71
		C576.79,452.02,573.78,474.74,573.78,488.58z"/>
	<path class="st4" d="M600.04,466.66c3.11-4.88,7.28-6.65,11-6.65c6.74,0,12.07,6.03,12.07,25.38c0,20.76-10.38,26.62-16.68,26.62
		c-3.9,0-6.39-0.98-7.99-3.73c0,6.12,0.09,11,0.53,13.04c-3.02,3.02-15.08,3.73-16.5,2.22c-1.51-1.42-1.51-59,0.44-60.96
		c1.95-1.86,17.21,0.44,17.21,1.51C600.13,464.44,600.04,465.6,600.04,466.66z M606.43,488.13c0-7.28-0.35-13.22-3.64-13.22
		c-2.04,0-3.64,5.94-3.64,13.22c0,7.36,0.62,13.22,3.64,13.22C604.74,501.35,606.43,495.5,606.43,488.13z"/>
	<path class="st4" d="M643.34,488.58c0,5.95-0.35,10.47,2.84,10.47c3.19,0,5.15-13.31,5.15-15.53c1.42-1.42,5.94,3.37,5.94,4.61
		c0,1.24-4.7,25.38-17.21,25.38c-8.16,0-13.84-4.44-13.84-20.14c0-18.1,0.27-30.17,1.24-31.06c0.98-0.98,15.88-1.33,17.92,0.71
		C646.17,463.82,643.34,474.74,643.34,488.58z M634.11,457.97c-3.9,0-7.1-3.19-7.1-7.1s3.19-7.1,7.1-7.1h7.01
		c3.9,0,7.1,3.19,7.1,7.1s-3.19,7.1-7.1,7.1H634.11z"/>
	<path class="st4" d="M706.87,488.4c0,1.24-4.7,25.29-17.21,25.29c-8.16,0-13.84-4.35-13.84-20.14c0-9.76-0.18-14.64-1.77-14.64
		c-3.19,0-4.44,16.33-4.88,24.05c0.09,3.46,0.27,6.3,0.62,7.81c-3.02,3.02-15.08,3.64-16.5,2.22c-1.51-1.51-3.37-45.16-1.42-47.12
		c1.86-1.95,17.92-2.48,17.92-1.42c0,0.89-0.18,4.17-0.27,8.61c2.39-6.3,6.21-11.27,12.16-11.27c15.17,0,11.27,18.19,11.27,27.06
		c0,5.86-0.36,10.38,2.84,10.38c3.19,0,5.15-13.22,5.15-15.44C702.34,482.28,706.87,487.07,706.87,488.4z"/>
	<path class="st4" d="M740.58,488.58c0,5.95-0.36,10.47,2.84,10.47c3.19,0,5.15-13.31,5.15-15.53c1.42-1.42,5.86,3.37,5.86,4.61
		c0,1.24-4.61,25.38-17.12,25.38c-6.39,0-11.27-2.75-13.04-11.45c-3.37,8.96-9.23,11.62-14.02,11.36
		c-6.66-0.36-11.71-6.57-10.74-25.91c1.06-20.76,11.8-26.09,18.1-25.82c2.93,0.18,5.06,0.89,6.57,2.57
		c0.09-1.06,0.27-1.77,0.53-1.95c0.89-0.98,15.88-1.33,17.92,0.71C743.42,463.82,740.58,474.74,740.58,488.58z M716,485.29
		c-0.18,4.7-1.15,13.13,2.13,13.31c1.95,0,4.88-5.77,5.15-13.04c0.27-7.28,0.62-13.22-2.31-13.31
		C718.93,472.16,716.27,478.02,716,485.29z"/>
</g>
</svg>
